<svg xmlns="http://www.w3.org/2000/svg" xmlns:xlink="http://www.w3.org/1999/xlink"><symbol id="icon-arrow-left"><path d="M50 11H7.7l8.1-8.2L13 0 0 13l13 13 2.8-2.8L7.7 15H50v-4Z"/></symbol><symbol id="icon-arrow-right"><path d="M0 11h42.3l-8.1-8.2L37 0l13 13-13 13-2.8-2.8 8.1-8.2H0v-4Z"/></symbol><symbol id="icon-cart"><path d="M20.188 6.857h-3.55L13.188.381C12.985 0 12.58-.095 12.174.095s-.507.572-.304.953l3.145 5.81H5.783l3.145-5.81c.202-.381 0-.762-.305-.953-.406-.19-.811 0-1.014.286l-3.45 6.476H.812c-.406 0-.812.286-.812.762 0 .381.304.762.812.762h.202l.914 2.857c-.203.095-.305.286-.305.572 0 .38.305.666.71.666L4.058 18h12.884l1.725-5.524c.405 0 .71-.286.71-.667 0-.19-.102-.476-.304-.57l.912-2.858h.203c.406 0 .812-.286.812-.762 0-.476-.406-.762-.812-.762Zm-4.565 9.62H5.073L3.854 12.38h13.087l-1.319 4.095Zm1.623-5.525H3.348l-.812-2.666h15.522l-.812 2.666Z"/></symbol><symbol id="icon-email"><path d="M28 0H4C1.8 0 0 1.8 0 4v13c0 2.2 1.8 4 4 4h24c2.2 0 4-1.8 4-4V4c0-2.2-1.8-4-4-4ZM2 5.3l7 5.3-7 5.3V5.3ZM30 17c0 1.1-.9 2-2 2H4c-1.1 0-2-.9-2-2l7.8-5.9 4.4 3.3c.5.4 1.2.6 1.8.6.6 0 1.3-.2 1.8-.6l4.4-3.3L30 17Zm0-1.2-7-5.3 7-5.3v10.6Zm-12.8-2.2c-.4.3-.8.4-1.2.4-.4 0-.9-.1-1.2-.4l-4.1-3.1-.8-.6L2 4c0-1.1.9-2 2-2h24c1.1 0 2 .9 2 2l-12.8 9.6Z"/></symbol><symbol id="icon-htmlacademy-logo"><path d="M13.7.044h-.1L.1 1.444v24.7l13.5 8 13.4-8v-24.7L13.7.044Zm11.4 12.1-11.5-6.8v-.1h-.1l-.1-.1v.1L2 12.144v-9l11.5-1.2 11.6 1.2v9Zm-11.6-5.3 11.5 6.7-4.5 2.6-7.1-4.2v1.4l5.9 3.5-.9.5-5-3v1.4l3.8 2.3-.8.5-3-1.8v1.4l1.9 1.1-1.8 1.1-11.4-6.7 11.4-6.8ZM2 15.144l11.4 6.8v1l-7.9-4.7v1.4l8 4.8v1.1l-8-4.7v1.4l8 4.8 8.1-4.9v-5.2l3.4-2v10l-11.5 6.9-11.5-6.8v-9.9Z"/></symbol><symbol id="icon-logo-footer"><path d="M19.22 21.5c-.1-2.7-.5-5.3-.5-8 0-2.2.4-4.4-.4-6.5 0-.2.1-.5.1-.7.2-1-3.3-.5-3.8.5-.3.3-.5.6-.4 1 0 .1.1.2.1.3-.7 3.2-1.6 6.3-2.6 9.4-.4 1.2-.9 2.3-1.3 3.5-.6-1.1-1.2-2.2-1.6-3.4-1.4-3.4-2.6-6.9-4.3-10.2.2-1.5-3.2-1.4-3.9 0-.8 1.7-.7 3.4-.4 5.2.3 2 .4 4 .4 6.1 0 4 .4 7.9.4 11.9-.4.4-.5.9-.1 1.4.2.2.4.4.6.5 1 .7 3.6.1 3.6-1.3 0-4.1-.3-8.2-.4-12.4v-1.2c.1.1.1.3.2.4.6 1.6 1.3 3.2 2.2 4.7.9 1.5 1.3 3.1 1.8 4.7-.2.2-.3.5-.2.7 0 .2.1.3.3.4.6.5 1.8.3 2.5 0 .3-.1.6-.3.8-.4.3-.2.9-.7.7-1.2 0-.1-.1-.2-.1-.3.5-1.3.7-2.6 1-3.9.3-1.4.8-2.8 1.3-4.1.1.6.1 1.2.2 1.9.2 2.6 0 5.1 0 7.6 0 .8.1 1.6.2 2.5.1.3.4 1.8.3 1.9-.8.5-.6 1.1.2 1.3.9.2 2.1-.1 2.8-.7 1.2-1.1.6-2.8.4-4.2-.5-2.4 0-5-.1-7.4ZM27.62 22.2c-.1-2-.8-3.9-.8-5.9 0-2.3.2-4.6-.2-6.9-.1-.7-4.1.1-3.9 1 .3 2.1.2 4.2.2 6.4 0 2 .5 3.9.7 5.9.3 2.1-.1 4.2.1 6.2.1 1 .8 2.7.1 3.6-.4.5 1.5.3 1.6.3.8-.1 1.8-.4 2.3-1 .7-.8.2-2.4.1-3.4-.3-2-.1-4.2-.2-6.2ZM43.92 18.9c-2.1-2.8-5.9-.8-8.6-1.5-1.4-.4-1.4-2.3-1.4-3.4 0-1.4-.1-2.7-.3-4.1-.1-1.1 0-2.1.7-2.9.1-.1.9-.3.8-.3.4-.1.7-.1 1.1-.1 1.5-.1 4.6.2 4 2.5-.3 1 3.6.4 3.9-.6 1.2-4.6-7.3-3.7-9.7-3.1-2.2.6-4.6 1.8-4.8 4.4-.1 1.2.3 2.4.3 3.6.1 1.4-.2 2.8.3 4.1 1.1 3 5.5 1.6 7.8 1.7 3.8.3 2.7 5.5 2.7 7.9 0 1.3 1.2 3.4.2 4.5-.6.7-2 .7-2.8.8-.8.1-2.2.3-2.7-.5-1-1.4.1-3.8-.1-5.4-.1-.9-4.1-.1-3.9 1 .3 2.6-1.4 6.1 2.4 6.6 2.4.3 5.2-.2 7.5-.9 1.2-.4 2.3-.9 3.2-1.8 1-.9.7-2.3.4-3.5-.5-3.1.9-6.5-1-9ZM61.32 18.7c-.1-3.8-.7-7.5-.7-11.3 0-2-4-1.3-4 .3 0 3.6.5 7.2.7 10.8v.2c-1.9 0-3.9.2-5.9.2.2-4.6-.6-9.2-.4-13.9 0-.6-3.9-.1-3.9 1-.2 4.5.6 8.9.5 13.4-.1 2.1-.2 4.3-.3 6.4 0 1.1.2 2.2.3 3.3.1 1 .5 2.3.2 3.3-.2.8 3.6.3 3.9-.7.5-1.8-.2-4-.4-5.8-.2-1.7 0-3.5.1-5.2 2-.1 4.1-.3 6.1 0 .1 1.4.2 2.8.3 4.1.1 1.2.2 2.3.2 3.5 0 1 .1 2.5-.2 3.5-.8 2.1 3.1 1.9 3.7.4.7-1.9.5-4.2.4-6.2-.2-2.5-.6-4.9-.6-7.3ZM78.22 23.1c-.9-2.8-2.4-5.2-3.6-7.8 1-1.9 2-3.9 2.9-5.9.8-1.8 1.4-3.8 3.1-5.1.6-.4.6-.9-.3-1-.9-.1-2.1.2-2.8.7-1.4 1.3-2.4 2.7-3.1 4.4-.9 2.1-1.9 4.1-2.9 6.1-.1.1-.1.3-.2.4-.5.3-.8.8-.6 1.3-.8 1.6-1.6 3.1-2.5 4.6-.3-5.5-1-11.1-1.2-16.6 0-1.3-4-.5-3.9 1 .2 6.9 1.2 13.7 1.3 20.6v.1c-.3.3-.2.5.1.6 0 1.8-.1 3.5-.2 5.3-.5.7.5 1.1 1.1 1.1h.1c.7 0 2.6-.3 2.7-1.4.2-2.1.3-4.2.2-6.3 1.6-1.7 2.9-3.6 4.1-5.6.8 1.5 1.5 3 2 4.6.9 2.7 2.3 5.3 3.1 8 .5 1.8 4.5.7 3.9-1-1-2.8-2.4-5.3-3.3-8.1ZM101.72 18.5c-.2-.8-1.4-.8-2.3-.8v-1c-.1-2.7-.2-5.4-.4-8-.2-2.5-1.6-3.3-4-3.2-2.4.1-5.2.5-7.5 1.4-2.6 1-4.1 2.9-4.6 5.7-.5 3 .2 6.2.4 9.2.2 3.5.1 7 .1 10.5 0 .6 3.9 0 3.9-1V23c0-.8-.1-1.6-.1-2.4 1.4-.6 3.7 0 5.1.1 1.1.1 2.2-.2 3.2-.3 0 2.3.1 4.6.2 6.9 0 1.2.5 3.5-.4 4.5-.4.5 1.5.3 1.6.3.8-.1 1.8-.4 2.3-1 .9-1.1.5-3.8.4-5.1-.1-1.9-.1-3.8-.1-5.7 1.1-.2 2.4-.9 2.2-1.8Zm-14.6-.1c-.1-1.2-.2-2.5-.3-3.7-.2-2.3.1-5.6 2.3-7 .6-.4 1.7-.3 2.4-.4 1-.2 2-.4 2.8.2 1.2.8.9 3.7.9 4.9 0 2 .2 4 .3 6-.6.1-1.1.1-1.7.1-2.3-.2-4.6-.6-6.7-.1ZM24.22 6.7c.5-.1 1-.2 1.5-.5l.2-.2c.5-.3 1-.8.7-1.4-.5-1.1-.4-2.2-.4-3.4 0-1-1-1.2-1.8-1.2-.7.1-2.2.6-2.2 1.5 0 1-.1 2 .1 3 0 .1-.1.2-.1.4-.1.2 0 .4.1.6v.4c.1.2.2.4.4.5.6.3 1.1.3 1.5.3Z"/></symbol><symbol id="icon-phone"><path d="M17.44 24h-1.11c-4.939-.593-8.568-2.864-11.189-5.728C2.521 15.408.403 11.753 0 6.716V5.333c.1-.888.504-1.481 1.109-2.074.605-.69 1.613-1.481 2.52-1.58.706 0 1.815.494 2.218 1.087.403.493.605 1.58.806 2.37.202.889.605 1.975.504 2.765-.201 1.186-1.814 1.68-2.217 2.568 1.612 3.655 4.133 6.42 7.56 8.198.806-.494 1.613-1.877 2.823-1.877.403 0 1.008.198 1.41.297.505.098.908.296 1.311.493.706.297 2.017.593 2.42 1.186.403.592.705 1.58.605 2.172-.303 1.284-2.42 2.667-3.63 3.062ZM12.6 1.481c5.948 0 10.888 4.741 10.888 10.667H25C25 5.432 19.456 0 12.6 0v1.481Z"/><path d="M12.6 9.185v1.58c.807 0 1.412.593 1.412 1.383h1.613c0-1.58-1.31-2.963-3.024-2.963ZM12.6 6.124c3.327 0 6.15 2.666 6.15 6.024h1.613c0-4.148-3.427-7.506-7.661-7.506v1.482H12.6Z"/></symbol><symbol id="icon-play"><path d="M97.285 18.147s-.903-7.018-3.815-10.126c-3.614-4.01-7.73-4.11-9.538-4.311C70.58 2.707 50.5 2.707 50.5 2.707h-.1s-20.08 0-33.433 1.003c-1.907.2-5.923.3-9.538 4.31-2.81 3.109-3.815 10.127-3.815 10.127s-.903 8.222-.903 16.443v7.72c0 8.221.903 16.443.903 16.443s.904 7.018 3.815 10.126c3.615 4.01 8.434 3.91 10.542 4.311 7.63.802 32.529 1.003 32.529 1.003s20.08 0 33.432-1.003c1.908-.2 5.924-.3 9.538-4.311 2.811-3.108 3.815-10.126 3.815-10.126s.904-8.222.904-16.443v-7.72c0-8.222-.904-16.443-.904-16.443Z" fill="#63D1BB"/><path d="M50.4 77c-1.004 0-25.1-.3-32.73-1.003h-.2c-.302-.1-.704-.1-1.105-.2-2.51-.3-7.229-.902-10.843-5.013-3.414-3.61-4.418-10.828-4.518-11.63C1.004 58.853 0 50.63 0 42.41v-7.72c0-8.321.904-16.443.904-16.743v-.1c.1-.803 1.204-7.921 4.517-11.63 4.016-4.412 8.534-4.914 10.743-5.114.2 0 .402 0 .502-.1h.1C30.12 0 50.2 0 50.4 0h.1c.2 0 20.28 0 33.633 1.003h.1c.201 0 .302 0 .503.1 2.208.2 6.726.702 10.742 5.113 3.414 3.61 4.418 10.828 4.518 11.63 0 .301 1.004 8.523 1.004 16.844v7.72c0 8.322-.904 16.443-1.004 16.744v.1c-.1.802-1.205 8.02-4.518 11.63-4.016 4.412-8.534 4.913-10.742 5.113-.201 0-.402 0-.502.1h-.1C70.78 77 50.6 77 50.4 77Zm-32.027-6.417c7.53.702 31.324 1.003 32.127 1.003.703 0 20.18 0 33.131-1.003.201 0 .402 0 .603-.1 1.807-.2 4.618-.501 7.228-3.309 1.807-2.005 2.912-6.918 3.113-8.622.1-.501.903-8.422.903-16.142v-7.72c0-7.82-.903-15.64-1.004-16.142-.301-2.406-1.405-6.817-3.112-8.522-2.61-2.908-5.422-3.108-7.229-3.309-.2 0-.401 0-.602-.1C70.379 5.615 50.6 5.615 50.4 5.615h-.1c-.202 0-20.08 0-33.132 1.002-.2 0-.402 0-.602.1-1.808.201-4.619.502-7.229 3.309-1.807 2.005-2.912 6.918-3.112 8.622-.1.602-.904 8.422-.904 16.142v7.72c0 7.72.904 15.641.904 16.142.3 2.407 1.405 6.818 3.112 8.522 2.31 2.607 5.321 3.008 7.53 3.31.602-.101 1.004 0 1.506.1Z" fill="#fff"/><path d="M38.452 20.553v35.793L68.371 38.5 38.452 20.553Z" fill="#fff"/></symbol><symbol id="icon-search"><path d="m17.693 16.057-3.477-3.477c1.023-1.33 1.534-2.966 1.534-4.705C15.75 3.477 12.273 0 7.875 0S0 3.477 0 7.875s3.477 7.875 7.875 7.875c1.739 0 3.375-.614 4.704-1.534l3.478 3.477c.204.205.409.307.818.307.614 0 1.125-.511 1.125-1.125 0-.204-.102-.511-.307-.818ZM2.25 7.875c0-3.068 2.557-5.625 5.625-5.625S13.5 4.807 13.5 7.875 10.943 13.5 7.875 13.5 2.25 10.943 2.25 7.875Z"/></symbol><symbol id="icon-tg"><path d="M20.331.247c.179.15.265.382.227.612L17.93 16.616a.657.657 0 0 1-1.011.438L9.04 11.802a.657.657 0 0 1-.148-.957l2.61-3.263-4.36 2.907a.657.657 0 0 1-.657.04L1.233 7.905a.657.657 0 0 1 .073-1.206L19.69.133a.656.656 0 0 1 .642.114ZM3.197 7.417l3.535 1.768 7.561-5.041a.657.657 0 0 1 .877.956l-4.805 6.007 6.438 4.291L19.08 1.745 3.197 7.417Z"/></symbol><symbol id="icon-vk"><path d="M.87 2.433c0-.855.515-1.316 1.546-1.383l3.97.025a.52.52 0 0 1 .532.377c.409 1.258.866 2.343 1.372 3.257.507.914 1.168 1.966 1.985 3.156.072.151.187.226.347.226.124 0 .222-.058.293-.176l.08-.276.026-4.35c0-.303-.075-.504-.226-.604-.151-.101-.43-.176-.84-.227-.319-.05-.479-.234-.479-.553 0-.067.009-.117.027-.15C9.876.664 10.94.12 12.7.12l1.492-.026c.675 0 1.235.16 1.678.478.445.319.667.822.667 1.509V7.79a.63.63 0 0 0 .346.125c.266 0 .497-.15.693-.452 1.953-2.582 3.01-4.309 3.17-5.18 0-.018.018-.06.053-.127.125-.251.33-.469.613-.653.285-.185.533-.31.746-.378a.555.555 0 0 1 .24-.05h4.13l.266.025c.355 0 .63.16.826.478.071.1.12.21.147.327.026.117.044.235.053.352.009.117.013.184.013.201v.176c-.124.688-.44 1.421-.945 2.2-.507.78-1.15 1.623-1.932 2.528s-1.27 1.5-1.465 1.786c-.16.2-.24.385-.24.553 0 .134.07.285.213.452l3.89 4.628c.213.268.32.561.32.88 0 .386-.16.704-.48.956-.32.251-.702.393-1.146.427l-.453.025h-4.05a.864.864 0 0 0-.106.013.861.861 0 0 1-.107.012c-.39 0-.755-.159-1.092-.477-.124-.135-.96-1.124-2.505-2.968a1.384 1.384 0 0 0-.372-.327c-.072.268-.165.654-.28 1.157-.116.503-.2.863-.253 1.081l-.08.428c-.178.587-.55.939-1.12 1.056l-.372.025h-2.611c-1.475 0-2.944-.637-4.41-1.911-1.465-1.274-2.784-2.921-3.956-4.942-1.173-2.02-2.265-4.371-3.277-7.054a1.916 1.916 0 0 1-.134-.729Zm16.013 6.513c-.373 0-.71-.096-1.012-.289-.302-.193-.453-.457-.453-.792V2.081c0-.335-.09-.574-.267-.717-.178-.142-.488-.213-.932-.213L12.7 1.2c-.764 0-1.341.126-1.732.377.782.352 1.172.922 1.172 1.71v4.426a1.5 1.5 0 0 1-.532 1.044 1.59 1.59 0 0 1-1.066.415c-.533 0-.942-.243-1.226-.73-1.385-1.978-2.415-3.856-3.09-5.633l-.24-.654-3.544-.025c-.23 0-.36.013-.386.038-.027.025-.04.096-.04.214 0 .15.018.31.053.478l.56 1.408c1.492 3.638 3.113 6.505 4.862 8.6 1.75 2.096 3.468 3.144 5.156 3.144h2.664c.107 0 .187-.03.24-.088.053-.059.098-.172.133-.34l.053-.251.507-2.213c.142-.302.266-.503.372-.604a.976.976 0 0 1 .693-.276c.426 0 .862.243 1.306.73l2.264 2.715c.142.218.293.327.453.327h4.396c.533 0 .8-.126.8-.377a.466.466 0 0 0-.08-.252l-3.863-4.552c-.302-.352-.453-.729-.453-1.131s.142-.788.426-1.157c.23-.335.68-.893 1.345-1.672a37.678 37.678 0 0 0 1.746-2.188c.497-.68.825-1.295.985-1.849l.08-.326a.37.37 0 0 1-.026-.164.572.572 0 0 0-.027-.189h-4.183c-.266.101-.48.252-.64.453l-.16.478c-.443 1.157-1.607 2.942-3.49 5.356a1.892 1.892 0 0 1-1.305.503Z"/></symbol><symbol id="icon-youtube"><path d="m16.721 8.887-5.236-3.49a.655.655 0 0 0-1.015.545v6.982a.654.654 0 0 0 1.015.545l5.236-3.491a.655.655 0 0 0 0-1.09Zm-4.941 2.815V7.163l3.403 2.27-3.403 2.269Zm12.48-8.564a2.4 2.4 0 0 0-1.452-1.636C19.088.072 13.121.094 12.87.094c-.25 0-6.218-.021-9.938 1.408a2.4 2.4 0 0 0-1.45 1.636C1.197 4.208.87 6.171.87 9.433c0 3.261.328 5.225.611 6.294a2.4 2.4 0 0 0 1.451 1.636c3.72 1.43 9.688 1.408 9.938 1.408h.077c.753 0 6.316-.044 9.861-1.408a2.4 2.4 0 0 0 1.451-1.636c.284-1.069.611-3.033.611-6.294 0-3.262-.327-5.226-.61-6.295ZM22.993 15.4a1.09 1.09 0 0 1-.654.742c-3.491 1.341-9.404 1.32-9.47 1.32-.065 0-5.978.021-9.469-1.32a1.092 1.092 0 0 1-.654-.742c-.262-1.004-.568-2.847-.568-5.967 0-3.12.306-4.964.568-5.968a1.09 1.09 0 0 1 .654-.742c3.491-1.341 9.404-1.32 9.47-1.32.065 0 5.978-.021 9.469 1.32a1.09 1.09 0 0 1 .654.742c.262 1.004.567 2.848.567 5.968s-.305 4.963-.567 5.967Z"/></symbol></svg>